<svg width="16" height="18" viewBox="0 0 16 18" fill="none" xmlns="http://www.w3.org/2000/svg">
<path d="M4.01434 8.44814C3.69413 7.87298 3.08 7.48389 2.375 7.48389C1.33947 7.48389 0.5 8.32335 0.5 9.35889C0.5 10.3944 1.33947 11.2339 2.375 11.2339C3.08 11.2339 3.69413 10.8448 4.01434 10.2696M4.01434 8.44814C4.16447 8.7178 4.25 9.02835 4.25 9.35889C4.25 9.68942 4.16447 9.99998 4.01434 10.2696M4.01434 8.44814L11.9857 4.01963M4.01434 10.2696L11.9857 14.6981M11.9857 14.6981C11.8355 14.9678 11.75 15.2784 11.75 15.6089C11.75 16.6444 12.5895 17.4839 13.625 17.4839C14.6605 17.4839 15.5 16.6444 15.5 15.6089C15.5 14.5734 14.6605 13.7339 13.625 13.7339C12.92 13.7339 12.3059 14.123 11.9857 14.6981ZM11.9857 4.01963C12.3059 4.59479 12.92 4.98389 13.625 4.98389C14.6605 4.98389 15.5 4.14442 15.5 3.10889C15.5 2.07335 14.6605 1.23389 13.625 1.23389C12.5895 1.23389 11.75 2.07335 11.75 3.10889C11.75 3.43942 11.8355 3.74998 11.9857 4.01963Z" stroke="white" stroke-linecap="round" stroke-linejoin="round"/>
</svg>
