<svg width="20" height="21" viewBox="0 0 20 21" fill="none" xmlns="http://www.w3.org/2000/svg">
<g id="ic-database-outl">
<path id="Vector" d="M15.8327 5.35889C15.8327 6.7396 13.221 7.85889 9.99935 7.85889C6.77769 7.85889 4.16602 6.7396 4.16602 5.35889M15.8327 5.35889C15.8327 3.97817 13.221 2.85889 9.99935 2.85889C6.77769 2.85889 4.16602 3.97817 4.16602 5.35889M15.8327 5.35889V10.3589M4.16602 5.35889V10.3589M4.16602 10.3589C4.16602 11.7397 6.77789 12.8589 9.99935 12.8589C13.2208 12.8589 15.8327 11.7397 15.8327 10.3589M4.16602 10.3589V15.3589C4.16602 16.7397 6.77789 17.8589 9.99935 17.8589C13.2208 17.8589 15.8327 16.7397 15.8327 15.3589V10.3589" stroke="white" stroke-linecap="round" stroke-linejoin="round"/>
</g>
</svg>
