<svg width="16" height="16" viewBox="0 0 16 16" fill="none" xmlns="http://www.w3.org/2000/svg">
<path d="M1.125 3.35889C1.125 2.32335 1.96447 1.48389 3 1.48389H4.875C5.91053 1.48389 6.75 2.32335 6.75 3.35889V5.23389C6.75 6.26942 5.91053 7.10889 4.875 7.10889H3C1.96447 7.10889 1.125 6.26942 1.125 5.23389V3.35889Z" stroke="white" stroke-linecap="round" stroke-linejoin="round"/>
<path d="M1.125 11.4839C1.125 10.4484 1.96447 9.60889 3 9.60889H4.875C5.91053 9.60889 6.75 10.4484 6.75 11.4839V13.3589C6.75 14.3944 5.91053 15.2339 4.875 15.2339H3C1.96447 15.2339 1.125 14.3944 1.125 13.3589V11.4839Z" stroke="white" stroke-linecap="round" stroke-linejoin="round"/>
<path d="M9.25 3.35889C9.25 2.32335 10.0895 1.48389 11.125 1.48389H13C14.0355 1.48389 14.875 2.32335 14.875 3.35889V5.23389C14.875 6.26942 14.0355 7.10889 13 7.10889H11.125C10.0895 7.10889 9.25 6.26942 9.25 5.23389V3.35889Z" stroke="white" stroke-linecap="round" stroke-linejoin="round"/>
<path d="M9.25 11.4839C9.25 10.4484 10.0895 9.60889 11.125 9.60889H13C14.0355 9.60889 14.875 10.4484 14.875 11.4839V13.3589C14.875 14.3944 14.0355 15.2339 13 15.2339H11.125C10.0895 15.2339 9.25 14.3944 9.25 13.3589V11.4839Z" stroke="white" stroke-linecap="round" stroke-linejoin="round"/>
</svg>
